PathFileType	3	(X/Y/Z)	D:\minhoCalibration\240510\subject3_KPNP\preferred\preferred02.trc
DataRate	CameraRate	NumFrames	NumMarkers	Units	OrigDataRate	OrigDataStartFrame	OrigNumFrames
200.0	200.0	36	10	mm	200.0	269	111	
Frame#	Time	Left_Ankle_Outer1			Left_Ankle_Inner1			Left_Knee_Outer1			Left_Knee_Inner1			Left_Wrist1			Right_Wrist1			Right_Knee_Inner1			Right_Knee_Outer1			Right_Ankle_Inner1			Right_Ankle_Outer1			
		X1	Y1	Z1	X2	Y2	Z2	X3	Y3	Z3	X4	Y4	Z4	X5	Y5	Z5	X6	Y6	Z6	X7	Y7	Z7	X8	Y8	Z8	X9	Y9	Z9	X10	Y10	Z10	
269	1.335	-298.18546	129.00555	-551.64734	-352.22153	145.17343	-541.42523	-170.60614	529.29547	-406.94992	-259.61636	537.71594	-356.77365	-147.13737	909.23083	-595.56952	-442.66913	1079.311	-437.87805	-299.93597	914.52515	-76.743294	-383.65405	982.01917	-91.876251	-323.11176	800.14594	327.13013	-397.53909	868.46973	332.54642
270	1.34	-297.04596	128.91212	-552.18622	-351.49872	144.88646	-541.85651	-170.72353	529.56848	-407.66916	-258.92334	537.29352	-356.93686	-145.82669	912.02631	-592.42639	-447.10272	1075.2188	-438.88513	-301.33234	907.55414	-78.868637	-387.92361	972.71063	-91.834343	-325.74347	780.90814	322.08295	-403.13538	845.81085	327.8866
271	1.345	-296.08444	128.48552	-552.46423	-350.46924	144.52075	-542.54523	-171.04712	529.76184	-408.38306	-259.14709	537.20306	-357.51776	-144.37309	914.90228	-589.27069	-451.63235	1070.7543	-439.94162	-303.26453	900.22424	-81.112564	-391.64633	963.21686	-92.280853	-329.2775	760.62256	316.17099	-409.01373	822.50543	322.39755
272	1.35	-294.71161	127.93063	-552.90442	-349.42975	143.95036	-543.46161	-171.28214	530.07623	-409.16006	-259.4241	536.81775	-358.24591	-142.96059	917.75739	-585.98053	-456.15771	1066.0731	-441.20697	-305.26202	892.73792	-83.562866	-395.41931	953.68744	-92.866562	-333.35062	739.54529	309.61896	-415.28705	798.39374	316.56131
273	1.355	-293.29883	127.20956	-553.41345	-348.03635	143.21297	-544.55438	-172.03922	530.24878	-409.63815	-259.93716	536.50122	-359.21249	-141.62369	920.44299	-582.51068	-460.77014	1060.7605	-442.70972	-307.18268	885.18591	-86.175491	-399.64429	944.15704	-93.827888	-337.52301	717.77057	301.92206	-421.63354	773.40967	309.28317
274	1.36	-291.50806	126.23927	-554.1123	-346.44397	142.17273	-545.9455	-172.50456	530.33484	-410.15445	-260.98328	536.08929	-360.34198	-140.34344	923.03223	-578.99683	-465.39908	1055.2375	-444.28394	-308.69705	877.62091	-89.319176	-403.54596	935.06073	-95.135132	-342.44608	695.18848	292.90759	-428.44482	747.8761	300.86826
275	1.365	-289.90598	125.03421	-554.78937	-344.74503	141.04834	-547.59851	-173.46086	530.28729	-410.41995	-262.52451	535.5957	-361.85135	-139.26161	925.30396	-575.52496	-469.73602	1049.3367	-445.94797	-310.70596	870.25232	-91.863472	-407.42712	925.88666	-96.83886	-347.11746	672.08453	282.81219	-434.89133	721.59521	290.90323
276	1.37	-287.85007	123.77263	-555.854	-342.94812	139.65962	-549.59491	-174.53003	530.17102	-410.62253	-264.41522	534.91736	-363.72842	-138.20334	927.61591	-571.91779	-473.77951	1043.1943	-447.65915	-312.8587	862.9632	-94.188904	-411.58679	917.07025	-98.608498	-352.02417	648.42065	271.54349	-441.40924	694.75171	279.66809
277	1.375	-286.08139	122.34949	-556.83539	-341.24045	138.12405	-551.69257	-175.82288	530.03955	-410.58658	-267.00851	534.14636	-365.84241	-137.11241	929.48383	-568.5152	-477.52786	1036.6766	-449.99393	-315.28882	855.5697	-96.017845	-415.78513	908.18372	-100.51061	-356.95264	624.42975	259.29327	-447.80661	667.51276	267.052
278	1.38	-284.41226	120.75931	-557.88544	-339.66504	136.20776	-553.82562	-177.32007	529.54083	-410.61203	-269.30151	533.08356	-368.73138	-136.09668	931.14447	-565.26941	-481.01794	1030.3793	-452.34	-317.68579	848.3775	-98.207489	-419.91138	898.99762	-102.68637	-361.50174	600.42932	245.70793	-453.84128	640.11273	252.74915
279	1.385	-282.97626	119.08025	-558.80359	-338.30624	134.37546	-556.0882	-179.00046	528.81165	-410.71997	-272.46683	531.93677	-370.96091	-135.43401	932.46283	-561.84497	-484.08289	1024.03	-455.01123	-320.2681	841.19067	-100.35912	-424.06223	889.37628	-105.07732	-366.4523	576.68671	231.71114	-460.36462	612.54559	237.96454
280	1.39	-281.9592	117.44268	-559.87982	-337.43518	132.43205	-558.29468	-180.71176	527.89935	-410.88724	-275.49518	530.5509	-373.76224	-134.99689	933.45789	-558.63947	-486.80435	1018.0471	-457.81726	-323.33472	833.87238	-102.10352	-428.56415	879.04468	-107.56927	-370.80109	553.12744	216.73996	-466.11865	585.23181	221.03807
281	1.395	-281.84076	115.41737	-560.62091	-336.87943	130.44725	-560.18268	-183.14729	526.61896	-411.17963	-279.08194	528.90906	-376.69568	-134.52299	934.16193	-555.68005	-489.03094	1012.1349	-460.81717	-326.80829	826.08124	-104.03999	-433.17587	868.30219	-110.35062	-375.51636	529.6593	200.98518	-472.02573	558.18994	203.19122
282	1.4	-281.28882	113.8765	-561.8775	-336.78406	128.57446	-562.1347	-185.57263	525.14044	-411.48621	-282.3031	527.29248	-379.93491	-134.20792	934.59479	-552.8634	-491.17294	1006.8542	-463.97943	-330.62817	817.7392	-105.92986	-438.06128	857.04553	-113.41811	-372.97287	510.10095	175.80621	-477.06253	530.59296	183.04016
283	1.405	-281.90634	112.28204	-562.85498	-337.28748	126.66133	-563.78497	-187.91228	523.6723	-411.93552	-286.02411	525.25006	-383.34167	-134.07466	934.87946	-550.18927	-493.13776	1002.0313	-467.13327	-335.05634	808.88849	-107.76513	-443.12561	845.33191	-116.79725	-382.93677	485.38849	163.11143	-482.81168	504.38385	162.82326
284	1.41	-283.17197	110.41368	-563.56213	-338.3483	124.66047	-565.09784	-190.21275	521.9397	-412.40121	-289.23969	523.36731	-386.82089	-133.86536	934.77838	-547.85095	-495.11932	997.73328	-470.02994	-339.01602	799.2818	-110.39404	-448.17847	833.23242	-120.24641	-382.03528	463.5463	139.54903	-487.32898	478.60391	140.88303
285	1.415	-284.18442	109.06767	-564.75793	-339.87869	122.7296	-566.32867	-192.67368	520.21356	-412.89548	-292.64941	521.68115	-389.98105	-133.8764	934.38507	-545.42303	-496.90317	993.55902	-472.97116	-343.59433	789.13684	-112.90631	-453.47025	821.08746	-124.42052	-387.28824	441.19659	119.94546	-493.6792	454.44437	119.86363
286	1.42	-286.0231	107.49918	-565.76392	-341.65631	120.89896	-567.49817	-195.00406	518.60779	-413.49442	-295.83499	519.87933	-393.18274	-133.52277	933.97388	-543.28961	-498.5687	989.52008	-475.84955	-348.17307	778.56317	-115.66255	-458.58414	808.70935	-128.99324	-392.48663	419.15207	99.74826	-498.77396	430.43939	96.618141
287	1.425	-288.16214	105.91913	-566.80884	-343.58539	118.75694	-568.20551	-197.37784	517.01227	-414.03256	-298.65921	518.6145	-396.10135	-133.91177	933.08661	-541.09033	-500.19931	985.63196	-478.72339	-352.78455	767.57013	-118.62157	-463.48267	796.17438	-133.89468	-396.68225	396.97562	78.127213	-502.98773	407.46121	71.794052
288	1.43	-290.4447	104.25569	-567.85388	-345.95892	116.91663	-569.08563	-199.76617	515.6109	-414.8707	-301.60342	517.06146	-398.90594	-134.07343	932.13348	-539.16064	-501.7475	982.07507	-481.27939	-357.32532	756.1651	-121.85155	-468.00391	783.58478	-139.09082	-401.25293	375.99506	55.191349	-507.68518	385.43079	47.17807
289	1.435	-292.74838	102.63586	-568.93341	-348.26492	114.96884	-569.83923	-201.86252	514.21527	-415.55444	-303.79816	515.82983	-401.5199	-134.71169	930.96539	-537.15405	-503.07352	978.32062	-484.00894	-361.96878	744.2998	-125.47301	-472.38153	770.9494	-144.51355	-405.95966	355.84674	31.506981	-512.84351	364.3064	22.676743
290	1.44	-294.96405	100.80505	-569.95892	-350.60651	113.276	-570.72357	-203.87941	512.7981	-416.11554	-306.16263	514.79065	-403.68964	-135.12894	929.67853	-535.41492	-504.17746	974.46619	-486.89777	-366.59845	731.92688	-129.12479	-476.21259	758.52679	-150.80467	-409.3295	336.53537	7.0331874	-516.2395	344.1459	-4.4126754
291	1.445	-296.88828	99.061981	-571.04248	-352.73267	111.38018	-571.49359	-205.63692	511.18433	-417.2027	-308.05597	513.29266	-405.82938	-136.33667	927.99048	-533.45703	-505.21249	970.50232	-489.86789	-371.00607	719.42242	-134.1268	-480.4072	746.69165	-156.61943	-414.54926	316.17178	-17.729549	-520.4068	324.98358	-31.030628
292	1.45	-298.88846	97.154175	-571.90088	-354.4003	109.1976	-572.28552	-207.02455	509.90475	-418.45895	-309.4184	511.92749	-407.88324	-137.599	926.17334	-531.80182	-506.25534	966.8396	-492.35144	-375.33337	706.83624	-139.66707	-484.55588	735.12366	-163.06905	-418.18433	298.50729	-44.138863	-524.78613	306.99719	-57.481861
293	1.455	-300.01996	95.250381	-573.15942	-355.60214	107.4566	-573.53546	-208.23489	508.47626	-420.05203	-310.39365	510.53238	-409.57938	-138.13432	924.74036	-530.27216	-507.33578	963.36511	-494.64114	-379.34149	694.3941	-145.53185	-488.85117	723.9823	-169.72986	-421.51312	281.41974	-71.146637	-528.93768	289.45224	-84.784431
294	1.46	-300.88022	93.223206	-574.09674	-356.53888	105.06392	-574.43402	-209.22639	506.83575	-421.86847	-311.52097	508.66006	-411.12207	-138.81424	923.26385	-529.22675	-508.37784	959.98224	-496.76828	-383.77176	681.87982	-152.48097	-493.21136	712.70599	-177.18257	-424.66891	265.34875	-98.817368	-531.49634	273.48273	-113.61591
295	1.465	-301.38193	91.336517	-575.13965	-357.04626	102.88698	-575.52362	-210.05562	505.19742	-423.86374	-312.32886	506.95343	-413.28198	-142.69867	920.68567	-526.80817	-509.37527	956.71277	-498.89587	-387.9837	669.27014	-159.95837	-497.26547	701.35016	-185.3275	-427.26031	250.45555	-127.15003	-534.14459	259.38416	-141.7876
296	1.47	-301.52084	89.234474	-576.08575	-357.28275	100.65824	-576.63068	-210.79573	503.56091	-425.94186	-311.99103	505.25259	-413.95886	-143.90207	919.18793	-525.69354	-510.35498	953.5528	-500.85373	-392.07764	656.73114	-167.88412	-501.90942	690.38806	-192.78992	-429.64966	236.68582	-155.7108	-537.22583	245.18501	-170.40552
297	1.475	-301.47012	87.217926	-576.89209	-357.18988	98.532349	-577.84821	-211.49184	501.91409	-427.90424	-312.51553	503.11685	-415.27063	-145.50632	917.29578	-524.53192	-511.38736	950.36053	-502.78079	-396.39389	644.2887	-175.99196	-506.61176	678.62524	-201.29266	-431.76587	224.02072	-184.48428	-538.79156	233.14468	-199.89484
298	1.48	-301.13843	85.305016	-577.62054	-356.79727	96.432358	-578.92743	-212.1192	500.26822	-429.83646	-312.5463	501.21246	-416.71146	-147.36021	915.45966	-523.51752	-512.36438	947.39832	-504.61835	-400.76425	631.89307	-184.38496	-511.08487	666.98175	-210.19362	-433.13953	212.74763	-213.3744	-541.1004	221.77502	-227.92924
299	1.485	-300.86804	83.592903	-578.25116	-356.51404	94.584694	-580.0127	-212.63512	498.80405	-431.63162	-312.98596	499.17093	-418.05136	-148.30025	913.94543	-522.77075	-513.19989	944.25452	-506.69873	-405.34897	619.55475	-192.85141	-515.96796	655.68274	-218.7859	-434.90222	203.25636	-242.2574	-542.88403	211.68684	-256.70728
300	1.49	-300.79898	81.886459	-578.75543	-356.23199	92.920021	-580.83685	-213.3007	497.39172	-433.13394	-313.28281	497.75333	-419.37973	-149.07262	912.5304	-522.29749	-514.09784	941.27264	-508.63034	-410.035	607.146	-201.53398	-520.65155	644.50629	-227.77167	-436.11877	194.00826	-270.85321	-543.42731	203.18117	-288.65143
301	1.495	-300.59164	80.658607	-579.26111	-356.19089	91.52166	-581.55536	-213.88277	496.13257	-434.42151	-313.63507	496.09424	-420.99408	-150.85736	910.81299	-521.44983	-514.95624	938.18793	-510.78784	-414.79657	594.89203	-210.55113	-525.11145	632.97504	-237.60898	-436.9978	186.08069	-299.26746	-544.61224	196.21892	-319.67914
302	1.5	-300.71277	79.450661	-579.64044	-356.32343	90.289436	-582.14899	-214.51047	495.0675	-435.4754	-314.49951	494.6499	-422.91006	-151.81657	909.45691	-521.00421	-515.83252	935.19147	-512.84955	-419.20712	582.94922	-220.48119	-529.93225	621.82239	-247.69643	-434.73837	180.17397	-326.74109	-545.7699	189.64699	-346.62576
303	1.505	-300.85834	78.566757	-579.99487	-356.48138	89.673523	-582.82092	-215.11232	494.19464	-436.10275	-315.08109	493.41479	-424.65598	-152.69763	908.34808	-520.62085	-516.7276	931.89264	-515.38977	-423.83167	571.02686	-230.4933	-534.91907	611.27209	-257.30582	-435.22537	174.31601	-354.35931	-545.91113	183.85809	-375.87277
304	1.51	-301.51074	77.487854	-580.1416	-357.0325	88.756485	-583.17523	-215.85504	493.52966	-436.77863	-315.91873	492.99576	-425.7287	-153.49603	907.3432	-520.30225	-517.50165	929.12	-517.48712	-428.09192	559.41522	-240.78409	-539.03784	601.14789	-268.14273	-435.8703	169.26967	-381.49942	-546.28174	179.37976	-404.70377
